:SAMPLES-PER-SECOND 30
:FULLY-SPECIFIED
:DEGREES
1
root  16.9291 38.4423 -0.737383 112.755 -81.4702 -124.797
RightUpLeg  3.6528 -7.50788 7.19741
RightLeg  18.8643 -9.77793 -0.772385
RightFoot  -11.7829 -0.0947355 -3.92611
RightToes  3.49245e-010 0 -3.6325e-017
Spine  8.8765 -1.57555 15.1627
Spine1  3.99025 -0.292339 0.430876
HEad  -11.8284 -2.90426 -6.50642
LeftShoulder1  -0.601464 5.10826 -31.336
LeftArm  -2.26151 15.3463 -41.0877
LeftForeArm  24.0938 -15.7487 -5.7635
LeftHand  -0.0171165 8.33519 1.04683
RightShoulder  -0.903563 -5.98567 29.8168
RightArm  10.5547 -2.05125 44.5661
RightForeArm  12.0135 9.38721 5.85898
RightHand  -0.409172 4.51011 -5.07931
LeftUpLeg  -7.10767 5.14099 20.6632
LeftLeg  9.45683 -5.79396 -0.123118
LeftFoot  8.74425 1.39844 -8.18816
LeftToes  -2.21735e-009 9.83027e-011 -4.04511e-011
2
root  16.9267 38.4381 -0.746809 113.962 -81.3539 -126.054
RightUpLeg  3.65951 -7.50754 7.22222
RightLeg  18.9484 -9.60513 -0.765271
RightFoot  -11.7861 -0.0951806 -4.02686
RightToes  3.49245e-010 0 -3.6325e-017
Spine  8.94069 -1.59733 15.1822
Spine1  3.97642 -0.279018 0.360762
HEad  -12.0171 -2.83277 -6.57173
LeftShoulder1  -0.587695 5.07577 -31.2365
LeftArm  -2.07841 15.4904 -41.0664
LeftForeArm  23.7215 -15.9807 -5.69114
LeftHand  -0.0202927 7.95765 0.976834
RightShoulder  -0.930046 -6.0467 29.9945
RightArm  10.8159 -2.17107 44.4095
RightForeArm  11.6344 9.69331 5.89461
RightHand  -0.432457 4.78195 -5.22502
LeftUpLeg  -7.01058 5.14505 20.7604
LeftLeg  9.55932 -5.63925 -0.141856
LeftFoot  8.65234 1.40273 -8.2485
LeftToes  -2.21735e-009 9.83027e-011 -4.04511e-011
3
root  16.9274 38.4269 -0.760424 116.06 -81.1456 -128.225
RightUpLeg  3.67358 -7.46884 7.26743
RightLeg  19.0409 -9.2828 -0.759634
RightFoot  -11.8604 -0.0995555 -4.07491
RightToes  3.49245e-010 0 -3.6325e-017
Spine  8.88631 -1.51478 15.1423
Spine1  4.291 -0.199933 0.434506
HEad  -12.3874 -2.95036 -7.02763
LeftShoulder1  -0.59096 5.08339 -31.2617
LeftArm  -1.81733 15.3775 -41.1137
LeftForeArm  23.3843 -16.257 -5.61724
LeftHand  -0.0144454 8.16372 1.20642
RightShoulder  -0.949837 -6.10528 29.9383
RightArm  11.2247 -2.40292 44.3681
RightForeArm  11.0343 10.3687 5.90717
RightHand  -0.463444 5.34339 -5.31675
LeftUpLeg  -6.89414 5.0715 20.9094
LeftLeg  9.77386 -5.24132 -0.151788
LeftFoot  8.52147 1.39856 -8.27497
LeftToes  -2.21735e-009 9.83027e-011 -4.04511e-011
4
root  16.9152 38.4114 -0.773068 114.853 -81.1026 -127.135
RightUpLeg  3.82855 -7.45139 7.39849
RightLeg  19.0593 -9.45569 -0.759421
RightFoot  -11.9362 -0.105718 -4.06033
RightToes  3.49245e-010 0 -3.6325e-017
Spine  8.6055 -1.69959 15.2659
Spine1  4.8142 -0.390058 0.375358
HEad  -12.9918 -2.71794 -6.97982
LeftShoulder1  -0.576953 5.04794 -31.2112
LeftArm  -2.12187 15.1395 -41.1563
LeftForeArm  23.7817 -16.1251 -5.62174
LeftHand  -0.00754779 7.57655 1.66423
RightShoulder  -0.949443 -6.09904 30.0088
RightArm  11.3261 -2.43918 44.3831
RightForeArm  10.8345 10.5605 5.89997
RightHand  -0.461984 5.56417 -5.20809
LeftUpLeg  -6.99427 4.58645 21.0973
LeftLeg  10.1557 -5.0008 -0.240656
LeftFoot  8.3491 1.36835 -8.16947
LeftToes  -2.21735e-009 9.83027e-011 -4.04511e-011
5
root  16.9247 38.3893 -0.774625 115.096 -81.0055 -127.34
RightUpLeg  3.68132 -7.48292 7.47304
RightLeg  19.2425 -9.39363 -0.772128
RightFoot  -12.043 -0.106215 -4.10051
RightToes  3.49245e-010 0 -3.6325e-017
Spine  8.7461 -1.81204 15.142
Spine1  4.59119 -0.574518 0.739534
HEad  -12.8979 -2.42245 -7.27826
LeftShoulder1  -0.637524 5.19633 -31.5172
LeftArm  -1.89921 15.0476 -40.926
LeftForeArm  23.6758 -16.4257 -5.51174
LeftHand  -0.02355 7.72343 0.855803
RightShoulder  -0.912175 -6.01231 29.7791
RightArm  11.2737 -2.45273 44.4997
RightForeArm  11.2636 10.2702 5.93091
RightHand  -0.423817 5.71486 -4.74307
LeftUpLeg  -7.19279 4.17526 21.2347
LeftLeg  10.496 -4.53773 -0.2831
LeftFoot  8.17583 1.36332 -8.20783
LeftToes  -2.21735e-009 9.83027e-011 -4.04511e-011
6
root  16.9233 38.3769 -0.778627 115.285 -80.8846 -127.47
RightUpLeg  3.55399 -7.47936 7.57571
RightLeg  19.3841 -9.33366 -0.753558
RightFoot  -12.0766 -0.107711 -4.07137
RightToes  3.49245e-010 0 -3.6325e-017
Spine  8.89505 -1.89241 15.1689
Spine1  4.21724 -0.683935 0.964136
HEad  -12.9663 -1.89593 -7.27987
LeftShoulder1  -0.679929 5.29934 -31.7107
LeftArm  -1.7038 14.9115 -40.8193
LeftForeArm  23.7866 -16.3763 -5.56216
LeftHand  -0.0207376 7.81401 0.973567
RightShoulder  -0.905553 -5.99655 29.7408
RightArm  11.2267 -2.5219 44.4335
RightForeArm  11.6231 9.90249 5.97185
RightHand  -0.391019 5.367 -4.52829
LeftUpLeg  -7.36632 3.89326 21.3928
LeftLeg  10.7839 -4.18694 -0.31978
LeftFoot  8.05355 1.35833 -8.22695
LeftToes  -2.21735e-009 9.83027e-011 -4.04511e-011
7
root  16.9205 38.3613 -0.784396 115.638 -80.7747 -127.775
RightUpLeg  3.4568 -7.47761 7.66021
RightLeg  19.4982 -9.26361 -0.755411
RightFoot  -12.1471 -0.110668 -4.06543
RightToes  3.49245e-010 0 -3.6325e-017
Spine  8.81018 -1.93121 15.12
Spine1  4.23547 -0.787019 1.20315
HEad  -12.9637 -1.68903 -7.3014
LeftShoulder1  -0.732679 5.42682 -31.9451
LeftArm  -1.6316 14.6177 -40.7042
LeftForeArm  23.519 -16.3108 -5.60599
LeftHand  -0.0238224 7.5164 0.997118
RightShoulder  -0.897801 -5.97303 29.7693
RightArm  11.0674 -2.40934 44.3817
RightForeArm  11.5061 9.36783 6.02648
RightHand  -0.45012 5.33801 -5.17393
LeftUpLeg  -7.51006 3.56113 21.5138
LeftLeg  11.0306 -3.72831 -0.3034
LeftFoot  7.97617 1.35043 -8.21143
LeftToes  -2.21735e-009 9.83027e-011 -4.04511e-011
8
root  16.9099 38.3575 -0.790214 116.364 -80.6737 -128.512
RightUpLeg  3.46887 -7.57679 7.63164
RightLeg  19.5328 -9.03594 -0.651213
RightFoot  -12.1777 -0.113287 -4.24946
RightToes  3.49245e-010 0 -3.6325e-017
Spine  8.70911 -1.94166 15.1605
Spine1  4.2966 -0.797797 1.1811
HEad  -12.895 -1.89068 -7.21468
LeftShoulder1  -0.725025 5.41 -31.878
LeftArm  -1.76943 14.5417 -40.8548
LeftForeArm  23.3294 -16.3185 -5.58938
LeftHand  -0.0140218 6.47299 1.93036
RightShoulder  -0.896219 -5.96624 29.8042
RightArm  10.8919 -2.46514 44.3829
RightForeArm  11.4129 8.99249 6.03321
RightHand  -0.48641 5.3408 -5.56451
LeftUpLeg  -7.49865 3.27724 21.5898
LeftLeg  11.2015 -3.41231 -0.278178
LeftFoot  7.85512 1.34281 -8.21479
LeftToes  -2.21735e-009 9.83027e-011 -4.04511e-011
9
root  16.884 38.3568 -0.801933 118.308 -80.5175 -130.519
RightUpLeg  3.52057 -7.65291 7.56929
RightLeg  19.6362 -8.61171 -0.589481
RightFoot  -12.2207 -0.115768 -4.31779
RightToes  3.49245e-010 0 -3.6325e-017
Spine  8.62252 -1.87279 15.1857
Spine1  4.45343 -0.694725 1.06945
HEad  -12.8192 -1.67486 -7.37676
LeftShoulder1  -0.704944 5.36464 -31.7274
LeftArm  -1.09389 14.6748 -41.0011
LeftForeArm  22.6995 -16.813 -5.48654
LeftHand  -0.00344175 8.14114 1.63012
RightShoulder  -0.912073 -5.99966 29.956
RightArm  10.7655 -2.60902 44.2503
RightForeArm  11.6458 9.05985 5.96238
RightHand  -0.445528 5.1014 -5.22951
LeftUpLeg  -7.30121 3.09926 21.6271
LeftLeg  11.2939 -2.98772 -0.204513
LeftFoot  7.76334 1.33138 -8.18385
LeftToes  -2.21735e-009 9.83027e-011 -4.04511e-011
10
root  16.8669 38.3544 -0.810096 119.262 -80.4879 -131.478
RightUpLeg  3.54729 -7.71812 7.48099
RightLeg  19.6533 -8.39155 -0.545541
RightFoot  -12.3053 -0.118942 -4.31886
RightToes  3.49245e-010 0 -3.6325e-017
Spine  8.55391 -1.82741 15.0575
Spine1  4.52331 -0.682469 1.17165
HEad  -12.6508 -1.37012 -8.00998
LeftShoulder1  -0.696315 5.34422 -31.6797
LeftArm  -0.974674 14.7453 -41.1126
LeftForeArm  22.6627 -16.9958 -5.42093
LeftHand  -0.00295699 7.7659 1.79691
RightShoulder  -0.929039 -6.04429 29.9878
RightArm  10.8007 -2.79547 44.1205
RightForeArm  11.5475 9.21594 5.94344
RightHand  -0.438476 5.20852 -5.10192
LeftUpLeg  -7.23389 3.02696 21.5846
LeftLeg  11.3387 -2.76446 -0.163819
LeftFoot  7.73815 1.33199 -8.19768
LeftToes  -2.21735e-009 9.83027e-011 -4.04511e-011
11
root  16.8539 38.3481 -0.816744 119.734 -80.3988 -131.912
RightUpLeg  3.4569 -7.70405 7.54729
RightLeg  19.7871 -8.36433 -0.590061
RightFoot  -12.3082 -0.117724 -4.38642
RightToes  3.49245e-010 0 -3.6325e-017
Spine  8.39343 -1.81614 14.9904
Spine1  4.71822 -0.739841 1.40948
HEad  -12.9244 -1.11829 -8.11817
LeftShoulder1  -0.693315 5.33466 -31.7077
LeftArm  -0.968978 14.7166 -41.2463
LeftForeArm  22.5209 -17.1276 -5.36825
LeftHand  -0.00290261 7.99098 1.70019
RightShoulder  -0.91603 -6.02504 29.7496
RightArm  10.6849 -2.92543 44.2778
RightForeArm  11.6861 9.38851 5.87997
RightHand  -0.40551 4.77303 -4.923
LeftUpLeg  -7.26794 2.99275 21.6548
LeftLeg  11.4445 -2.58333 -0.153725
LeftFoot  7.65072 1.34764 -8.32577
LeftToes  -2.21735e-009 9.83027e-011 -4.04511e-011
12
root  16.8314 38.3495 -0.829118 120.574 -80.278 -132.831
RightUpLeg  3.58798 -7.71775 7.55179
RightLeg  19.7754 -8.16874 -0.553428
RightFoot  -12.3484 -0.121233 -4.37512
RightToes  3.49245e-010 0 -3.6325e-017
Spine  8.41243 -1.82742 15.0181
Spine1  4.75521 -0.727888 1.35569
HEad  -13.0602 -0.721975 -8.14624
LeftShoulder1  -0.633953 5.18909 -31.4667
LeftArm  -1.19606 14.8781 -41.4762
LeftForeArm  22.7093 -17.1459 -5.3308
LeftHand  0.00115639 8.19151 1.79911
RightShoulder  -0.921148 -6.03273 29.8417
RightArm  10.6419 -3.02633 44.2394
RightForeArm  11.7013 9.39734 5.86375
RightHand  -0.421917 4.6831 -5.14786
LeftUpLeg  -7.11347 3.09931 21.7266
LeftLeg  11.5369 -2.54579 -0.161017
LeftFoot  7.57344 1.33182 -8.26304
LeftToes  -2.21735e-009 9.83027e-011 -4.04511e-011
13
root  16.8098 38.3491 -0.838575 121.257 -80.2146 -133.549
RightUpLeg  3.66192 -7.68828 7.53223
RightLeg  19.7767 -8.03319 -0.526213
RightFoot  -12.3948 -0.126639 -4.32089
RightToes  3.49245e-010 0 -3.6325e-017
Spine  8.39449 -1.84077 14.8839
Spine1  4.78129 -0.794588 1.59343
HEad  -13.0385 -0.298997 -8.33506
LeftShoulder1  -0.659673 5.24705 -31.6893
LeftArm  -1.32056 14.6939 -41.3358
LeftForeArm  22.7447 -16.9461 -5.39806
LeftHand  -0.00137193 7.72784 1.91175
RightShoulder  -0.900234 -5.98541 29.6882
RightArm  10.4773 -3.08809 44.3
RightForeArm  11.9612 9.4027 5.79787
RightHand  -0.391277 4.89801 -4.70811
LeftUpLeg  -7.01767 3.20455 21.7541
LeftLeg  11.6034 -2.49112 -0.166538
LeftFoot  7.50306 1.33758 -8.32629
LeftToes  -2.21735e-009 9.83027e-011 -4.04511e-011
14
root  16.7903 38.346 -0.839012 121.491 -80.1825 -133.771
RightUpLeg  3.6618 -7.69068 7.53008
RightLeg  19.8011 -7.98717 -0.523188
RightFoot  -12.4061 -0.124174 -4.36055
RightToes  3.49245e-010 0 -3.6325e-017
Spine  8.27745 -1.90316 14.9921
Spine1  4.88754 -0.842918 1.49485
HEad  -13.1307 0.0638403 -8.26483
LeftShoulder1  -0.672761 5.28062 -31.7099
LeftArm  -1.2929 14.6941 -41.3575
LeftForeArm  22.9188 -16.984 -5.37793
LeftHand  -0.0116501 8.02335 1.30331
RightShoulder  -0.902409 -5.98777 29.7412
RightArm  10.3317 -2.93243 44.3223
RightForeArm  11.7881 9.10989 5.80319
RightHand  -0.423568 5.48697 -4.82964
LeftUpLeg  -7.03006 3.28169 21.7783
LeftLeg  11.704 -2.52358 -0.199352
LeftFoot  7.42707 1.32781 -8.29878
LeftToes  -2.21735e-009 9.83027e-011 -4.04511e-011
15
root  16.7681 38.3416 -0.844366 121.471 -80.16 -133.806
RightUpLeg  3.75664 -7.68008 7.54287
RightLeg  19.8157 -7.9886 -0.529528
RightFoot  -12.4823 -0.127407 -4.3242
RightToes  3.49245e-010 0 -3.6325e-017
Spine  8.37955 -1.96355 14.963
Spine1  4.74488 -0.911003 1.60402
HEad  -12.991 0.602572 -8.2532
LeftShoulder1  -0.690394 5.32263 -31.8026
LeftArm  -1.16404 14.7052 -41.3338
LeftForeArm  22.8393 -16.8655 -5.46063
LeftHand  0.0164393 8.38423 2.28456
RightShoulder  -0.885865 -5.94839 29.6443
RightArm  10.2426 -2.97541 44.4066
RightForeArm  11.9551 9.04864 5.77813
RightHand  -0.401202 5.37043 -4.63537
LeftUpLeg  -7.02295 3.21053 21.8159
LeftLeg  11.8842 -2.40088 -0.206984
LeftFoot  7.35535 1.31109 -8.22751
LeftToes  -2.21735e-009 9.83027e-011 -4.04511e-011
